<?xml version="1.0" encoding="UTF-8" standalone="no"?>
<!-- Created with Inkscape (http://www.inkscape.org/) -->

<svg
   width="180.93375mm"
   height="200.75711mm"
   viewBox="0 0 180.93375 200.75711"
   version="1.1"
   id="svg5"
   inkscape:version="1.1.1 (3bf5ae0, 2021-09-20)"
   sodipodi:docname="joppaint.svg"
   xmlns:inkscape="http://www.inkscape.org/namespaces/inkscape"
   xmlns:sodipodi="http://sodipodi.sourceforge.net/DTD/sodipodi-0.dtd"
   xmlns="http://www.w3.org/2000/svg"
   xmlns:svg="http://www.w3.org/2000/svg">
  <sodipodi:namedview
     id="namedview7"
     pagecolor="#ffffff"
     bordercolor="#666666"
     borderopacity="1.0"
     inkscape:pageshadow="2"
     inkscape:pageopacity="0.0"
     inkscape:pagecheckerboard="0"
     inkscape:document-units="mm"
     showgrid="false"
     inkscape:zoom="0.77593294"
     inkscape:cx="353.1233"
     inkscape:cy="380.83188"
     inkscape:window-width="3440"
     inkscape:window-height="1375"
     inkscape:window-x="1920"
     inkscape:window-y="0"
     inkscape:window-maximized="1"
     inkscape:current-layer="layer1" />
  <defs
     id="defs2">
    <linearGradient
       id="linearGradient26"
       spreadMethod="pad"
       gradientTransform="matrix(-4387.91,4387.91,4387.91,4387.91,4753.95,366.05)"
       gradientUnits="userSpaceOnUse"
       y2="0"
       x2="1"
       y1="0"
       x1="0">
      <stop
   id="stop22"
   offset="0"
   style="stop-opacity:1;stop-color:#004caf" />

      <stop
   id="stop24"
   offset="1"
   style="stop-opacity:1;stop-color:#1f95f8" />

    </linearGradient>
  </defs>
  <g
     inkscape:label="Layer 1"
     inkscape:groupmode="layer"
     id="layer1"
     transform="translate(-11.572021,-47.718032)">
    <g
       transform="matrix(0.35277777,0,0,-0.35277777,11.572021,228.34025)"
       id="g10">
    <g
   transform="scale(0.1)"
   id="g12">
      <g
   id="g14">
        <g
   clip-path="url(#clipPath20)"
   id="g16">
          <path
   id="path28"
   style="fill:url(#linearGradient26);fill-opacity:1;fill-rule:nonzero;stroke:none"
   d="M 3873.89,0 H 1246.11 C 560.754,0 0,560.75 0,1246.11 V 3873.88 C 0,4559.25 560.754,5120 1246.11,5120 H 3873.89 C 4559.25,5120 5120,4559.25 5120,3873.88 V 1246.11 C 5120,560.75 4559.25,0 3873.89,0" />

        </g>

      </g>

      <path
   id="path30"
   style="fill:#ffffff;fill-opacity:1;fill-rule:nonzero;stroke:none"
   d="M 3961.59,4435.23 H 2570.18 c -13.15,0 -23.78,-10.64 -23.78,-23.77 v -441.84 c 0,-14.87 12.04,-26.92 26.92,-26.92 h 190.77 c 77.16,0 139.73,-59.35 146.43,-134.77 V 3505 3336.23 1728.75 1717.36 h -0.05 c 0.48,-16.84 -0.19,-33.4 -1.83,-49.71 -0.18,-2.38 -0.5,-4.73 -0.79,-7.09 -1.1,-9.53 -2.32,-19.01 -4.17,-28.29 -1.01,-5.29 -2.44,-10.44 -3.71,-15.65 -1.71,-6.93 -3.09,-13.97 -5.22,-20.75 -12.58,-40.27 -32.47,-77.62 -59.98,-110.5 -1.01,-1.17 -2.26,-2.25 -3.26,-3.41 -8.39,-9.72 -17.2,-19.19 -26.95,-28.06 -9.84,-8.95 -20.26,-17.27 -31.21,-25 -77.84,-55.14 -182.61,-79.4 -299.67,-68.2 -149.26,14.03 -297.34,81.72 -417.03,190.62 -119.67,108.89 -194.08,243.62 -209.48,379.41 -13.85,121.48 22.55,228.38 102.42,301.05 0.21,0.16 0.4,0.31 0.56,0.48 3.09,2.77 6.49,5.2 9.67,7.87 57.16,47.89 131.67,76.91 216.7,84.91 0.96,0.09 1.88,0.24 2.79,0.32 8.95,0.79 18.07,1.15 27.27,1.49 4.81,0.16 9.56,0.5 14.44,0.54 1.62,0.02 3.16,0.19 4.78,0.19 2.9,0 5.91,-0.38 8.81,-0.42 13.4,-0.21 26.9,-0.76 40.67,-1.94 1.74,-0.14 3.4,-0.08 5.19,-0.24 1.27,-0.13 2.53,-0.41 3.8,-0.54 78,-7.82 155.23,-31.11 228.52,-66.4 1.53,-0.07 3.3,-0.54 5.51,-1.76 22.34,-12.34 26.62,0.9 27.28,9.65 v 382.24 282.82 c 0,19.05 -13.25,35.9 -31.83,39.99 -394.76,86.88 -782.08,-3.55 -1055.38,-252.34 -238.75,-217.18 -354.24,-530.58 -316.82,-859.79 33.39,-293.23 183.91,-574.94 423.88,-793.33 233.89,-212.79 531.69,-345.86 838.88,-374.801 42.33,-3.918 84.86,-5.938 126.36,-5.938 293.38,0 565.61,100.598 766.54,283.379 190.34,173.3 304.35,411.27 321.08,670.16 l 1.55,1697.91 h 0.17 v 453.97 h 0.06 v 7.92 c 1.72,80.12 67.05,144.58 147.61,144.58 h 190.77 c 14.86,0 26.92,12.05 26.92,26.92 v 441.84 c 0,13.13 -10.63,23.77 -23.78,23.77" />

    </g>

  </g>
    <g
       transform="matrix(0.01555972,0,0,-0.01555972,264.18549,204.32994)"
       fill="#f44336"
       stroke="none"
       id="g1486"
       style="fill:#f4439c;fill-opacity:1">
      <path
         d="m -4729.2669,9944.8533 c -28,-22 -678,-928 -1438,-2004 -1702,-2411 -2879,-4144 -3515,-5175 -91,-148 -263,-442 -263,-450 0,-4 48,-24 108,-46 59,-21 190,-80 292,-131 267,-134 433,-241 688,-446 68,-54 125,-97 126,-95 9,10 107,177 193,328 656,1146 2013,3874 3700,7440 124,261 227,492 230,512 4,30 1,41 -20,62 -32,31 -65,33 -101,5 z"
         id="path1480"
         style="fill:#ffa53a;fill-opacity:1" />
      <path
         d="m -10119.267,1967.8533 c -154,-368 -309,-713 -623,-1386.99999 -264,-565.999997 -410,-893 -401,-900 2,-1 32,-8 68,-14 195,-38 431,-178 561,-335 28,-33 55,-62 60,-64 12,-5 199,242 580.0001,768.000003 400,551.999997 642,877.999997 839,1129.999987 176,225 171,216 144,238 -12,9 -66,53 -120,98 -304,248 -652,449 -963,555 -47.0001,16 -87.0001,29 -90.0001,29 -3,0 -28,-53 -55,-118 z"
         id="path1482"
         style="fill:#c8c8c8;fill-opacity:1" />
      <path
         d="m -11557.267,-439.14669 c -270,-44 -509,-190 -680,-415 -62,-81 -140,-241.00001 -167,-340.00001 -92,-340 -138,-476 -220,-644 -77,-157 -164,-279 -276,-392 -210,-211 -460,-336 -850,-423 -99,-23 -134,-35 -147,-51 -26,-32 -23,-76 8,-107 l 26,-26 482,6 c 264,4 560,11 656,17 1117,63 1758,256 2118,635 177,186 259,384 269,650 11,288 -65,511 -248,733.00001 -126,153 -342,287 -544,338 -127,31 -303,40 -427,19 z"
         id="path1484"
         style="fill:#f4439c;fill-opacity:1" />
    </g>
  </g>
</svg>
