<?xml version="1.0" encoding="UTF-8" standalone="no"?>
<svg
   viewBox="0 0 682.66669 682.66669"
   height="682.66669"
   width="682.66669"
   xml:space="preserve"
   id="svg2"
   version="1.1"
   sodipodi:docname="JoplinFontJ.svg"
   inkscape:version="1.1.1 (3bf5ae0, 2021-09-20)"
   xmlns:inkscape="http://www.inkscape.org/namespaces/inkscape"
   xmlns:sodipodi="http://sodipodi.sourceforge.net/DTD/sodipodi-0.dtd"
   xmlns="http://www.w3.org/2000/svg"
   xmlns:svg="http://www.w3.org/2000/svg"><sodipodi:namedview
   id="namedview13"
   pagecolor="#ffffff"
   bordercolor="#666666"
   borderopacity="1.0"
   inkscape:pageshadow="2"
   inkscape:pageopacity="0.0"
   inkscape:pagecheckerboard="0"
   showgrid="false"
   inkscape:zoom="1.2758789"
   inkscape:cx="409.91352"
   inkscape:cy="367.19787"
   inkscape:window-width="3440"
   inkscape:window-height="1375"
   inkscape:window-x="0"
   inkscape:window-y="0"
   inkscape:window-maximized="1"
   inkscape:current-layer="g14" />
  <defs
   id="defs6">
    <linearGradient
   id="linearGradient26"
   spreadMethod="pad"
   gradientTransform="matrix(-4387.91,4387.91,4387.91,4387.91,4753.95,366.05)"
   gradientUnits="userSpaceOnUse"
   y2="0"
   x2="1"
   y1="0"
   x1="0">
      <stop
   id="stop22"
   offset="0"
   style="stop-opacity:1;stop-color:#004caf" />
      <stop
   id="stop24"
   offset="1"
   style="stop-opacity:1;stop-color:#1f95f8" />
    </linearGradient>
  </defs>
  <g
   transform="matrix(1.3333333,0,0,-1.3333333,0,682.66667)"
   id="g10">
    <g
   transform="scale(0.1)"
   id="g12">
      <g
   id="g14"
   style="stroke:#000000;stroke-width:225;stroke-miterlimit:4;stroke-dasharray:none;stroke-opacity:1"
   transform="matrix(0.95792751,0,0,0.9579316,108.40009,107.48401)">
        
      </g>
      <path
   id="path30"
   style="fill:#000000;fill-opacity:1;fill-rule:nonzero;stroke:none;stroke-width:1.36006"
   d="M 4467.389,5111.9255 H 2574.994 c -17.8847,0 -32.3421,-14.471 -32.3421,-32.3286 V 4478.67 c 0,-20.2241 16.3751,-36.6127 36.6127,-36.6127 h 259.4578 c 104.9419,0 190.0406,-80.7193 199.153,-183.2947 v -412.0016 -229.5367 -2186.2621 -15.491 h -0.068 c 0.6528,-22.9034 -0.2583,-45.4259 -2.4888,-67.6084 -0.2448,-3.237 -0.6801,-6.4331 -1.0745,-9.6428 -1.4961,-12.9613 -3.1553,-25.8547 -5.6715,-38.476 -1.3736,-7.1946 -3.3184,-14.199 -5.0458,-21.2848 -2.3256,-9.4252 -4.2025,-19 -7.0994,-28.2212 -17.1095,-54.7695 -44.161,-105.5675 -81.5761,-150.2861 -1.3737,-1.5913 -3.0738,-3.0602 -4.4339,-4.6378 -11.4108,-13.2198 -23.3929,-26.0995 -36.6535,-38.1632 -13.3829,-12.1725 -27.5547,-23.4882 -42.4473,-34.0014 -105.8667,-74.99345 -248.3597,-107.98839 -407.5678,-92.75577 -203.002,19.08158 -404.399,111.14377 -567.184,259.25377 -162.7579,148.0965 -263.9596,331.3368 -284.9044,516.0187 -18.8368,165.2195 30.6692,310.6096 139.2969,409.4447 0.2856,0.2177 0.5439,0.4217 0.7615,0.6528 4.2026,3.7674 8.8268,7.0724 13.1518,10.7037 77.7408,65.133 179.0786,104.6019 294.7241,115.4824 1.3056,0.1223 2.5569,0.3264 3.7945,0.4351 12.1725,1.0745 24.5762,1.5641 37.0887,2.0266 6.5419,0.2175 13.0021,0.68 19.6392,0.7344 2.2033,0.028 4.2978,0.2584 6.5011,0.2584 3.9441,0 8.0379,-0.5169 11.9821,-0.5712 18.2247,-0.2857 36.5854,-1.0337 55.3135,-2.6385 2.3664,-0.1905 4.6241,-0.1084 7.0586,-0.3264 1.7273,-0.1769 3.441,-0.5577 5.1683,-0.7345 106.0842,-10.6356 211.1214,-42.3114 310.7998,-90.3077 2.0809,-0.096 4.4883,-0.7344 7.4939,-2.3937 30.3837,-16.783 36.2048,1.2241 37.1023,13.1245 v 519.8677 384.651 c 0,25.909 -18.0207,48.8259 -43.2906,54.3886 -536.8955,118.1616 -1063.6722,-4.8283 -1435.3754,-343.1965 C 738.15733,2481.8907 581.08451,2055.6493 631.97779,1607.9054 677.39005,1209.0963 882.10562,825.95506 1208.4782,528.93252 1526.5816,239.52629 1931.6061,58.543687 2349.4016,19.182317 c 57.5712,-5.328697 115.4144,-8.076009 171.8566,-8.076009 399.0131,0 769.261,136.818872 1042.537,385.411192 258.873,235.69764 413.933,559.35007 436.6867,911.4548 l 2.108,2309.252 h 0.2313 v 617.4245 h 0.082 v 10.7717 c 2.3392,108.9676 91.1916,196.6368 200.7577,196.6368 h 259.4578 c 20.2104,0 36.6127,16.3886 36.6127,36.6127 v 600.9269 c 0,17.8576 -14.4573,32.3286 -32.3421,32.3286" />
    </g>
  </g>
</svg>
